<?xml version="1.0" encoding="UTF-8"?>
<svg width="45px" height="58px" viewBox="0 0 45 58" version="1.1" xmlns="http://www.w3.org/2000/svg" xmlns:xlink="http://www.w3.org/1999/xlink">
    <!-- Generator: sketchtool 52.6 (67491) - http://www.bohemiancoding.com/sketch -->
    <title>41F32D2A-E641-417E-AF0B-9D895EB97DF3</title>
    <desc>Created with sketchtool.</desc>
    <g id="Desktop" stroke="none" stroke-width="1" fill="none" fill-rule="evenodd">
        <g id="Index" transform="translate(-621.000000, -676.000000)" fill="#8B9CAB" fill-rule="nonzero">
            <g id="Statistics" transform="translate(619.000000, 550.000000)">
                <g id="1" transform="translate(1.000000, 126.000000)">
                    <g id="exchange" transform="translate(23.500000, 29.500000) rotate(90.000000) translate(-23.500000, -29.500000) translate(-5.500000, 6.500000)">
                        <path d="M28.6868852,43.516 C17.847541,43.516 8.87704918,35.328 7.94262295,24.932 L14.6704918,29.808 L15.7918033,28.336 L6.72786885,21.804 L0.093442623,30.728 L1.58852459,31.832 L6.16721311,25.668 C7.47540984,36.708 17.1,45.356 28.6868852,45.356 C37.8442623,45.356 46.0672131,40.02 49.6180328,31.74 L47.9360656,31.004 C44.6655738,38.548 37.0967213,43.516 28.6868852,43.516 Z M55.504918,14.076 L51.2065574,20.24 C49.804918,9.2 40.2737705,0.644 28.6868852,0.644 C19.5295082,0.644 11.3065574,5.98 7.7557377,14.26 L9.43770492,14.996 C12.7081967,7.36 20.2770492,2.484 28.5934426,2.484 C39.4327869,2.484 48.4032787,10.764 49.3377049,21.16 L42.4229508,16.468 L41.395082,17.94 L50.6459016,24.196 L57,15.088 L55.504918,14.076 Z M30.4622951,33.856 C35.1344262,33.856 38.9655738,30.084 38.9655738,25.484 C38.9655738,22.356 37.1901639,19.504 34.3868852,18.124 C33.0786885,15.18 30.0885246,13.156 26.6311475,13.156 C21.9590164,13.156 18.1278689,16.928 18.1278689,21.528 C18.1278689,24.748 19.9967213,27.508 22.7065574,28.888 C24.1081967,31.924 27.0983607,33.856 30.4622951,33.856 Z M35.1344262,20.884 C36.3491803,22.08 37.0967213,23.736 37.0967213,25.484 C37.0967213,29.072 34.1065574,32.016 30.4622951,32.016 C28.5,32.016 26.7245902,31.188 25.5098361,29.808 C25.8836066,29.9 26.257377,29.9 26.7245902,29.9 C31.3967213,29.9 35.2278689,26.128 35.2278689,21.528 C35.1344262,21.252 35.1344262,21.068 35.1344262,20.884 Z M19.9967213,21.528 C19.9967213,17.94 22.9868852,14.996 26.6311475,14.996 C30.2754098,14.996 33.2655738,17.94 33.2655738,21.528 C33.2655738,25.116 30.2754098,28.06 26.6311475,28.06 C22.9868852,28.06 19.9967213,25.116 19.9967213,21.528 Z" id="Shape"></path>
                    </g>
                </g>
            </g>
        </g>
    </g>
</svg>