<?xml version="1.0" encoding="UTF-8"?>
<svg width="45px" height="45px" viewBox="0 0 45 45" version="1.1" xmlns="http://www.w3.org/2000/svg" xmlns:xlink="http://www.w3.org/1999/xlink">
    <!-- Generator: sketchtool 52.6 (67491) - http://www.bohemiancoding.com/sketch -->
    <title>64881C16-D6C5-4CDA-B035-6593F1E0F302</title>
    <desc>Created with sketchtool.</desc>
    <g id="Desktop" stroke="none" stroke-width="1" fill="none" fill-rule="evenodd">
        <g id="Index" transform="translate(-895.000000, -763.000000)" fill-rule="nonzero">
            <g id="Statistics" transform="translate(619.000000, 550.000000)">
                <g id="4" transform="translate(276.000000, 210.000000)">
                    <g id="Reserv" transform="translate(0.000000, 3.000000)">
                        <circle id="Oval-Copy-2" fill="#8C9CAA" cx="17.5" cy="17.5" r="2.5"></circle>
                        <rect id="Rectangle" fill="#8C9CAA" x="17" y="11" width="1" height="5"></rect>
                        <rect id="Rectangle-Copy-2" fill="#8C9CAA" x="17" y="19" width="1" height="6"></rect>
                        <polygon id="Rectangle-Copy-4" fill="#8C9CAA" transform="translate(18.000000, 17.500000) rotate(45.000000) translate(-18.000000, -17.500000) " points="17.5 10.5 18.5 10.5 18.5 24.5 17.5 24.5"></polygon>
                        <polygon id="Rectangle-Copy-6" fill="#8C9CAA" transform="translate(18.000000, 17.500000) rotate(90.000000) translate(-18.000000, -17.500000) " points="17.5 10.5 18.5 10.5 18.5 24.5 17.5 24.5"></polygon>
                        <polygon id="Rectangle-Copy-5" fill="#8C9CAA" transform="translate(18.000000, 17.500000) scale(-1, 1) rotate(45.000000) translate(-18.000000, -17.500000) " points="17.5 10.5 18.5 10.5 18.5 24.5 17.5 24.5"></polygon>
                        <circle id="Oval-Copy" stroke="#8C9CAA" cx="17.5" cy="17.5" r="7"></circle>
                        <path d="M18.8190287,1 C13.2833007,1 10.7242377,1.50605404 8.14525608,2.88530848 C5.87508011,4.09941187 4.09941187,5.87508011 2.88530848,8.14525608 C1.50605404,10.7242377 1,13.2833007 1,18.8190287 L1,26.1809713 C1,31.7166993 1.50605404,34.2757623 2.88530848,36.8547439 C4.09941187,39.1249199 5.87508011,40.9005881 8.14525608,42.1146915 C10.7242377,43.493946 13.2833007,44 18.8190287,44 L26.1809713,44 C31.7166993,44 34.2757623,43.493946 36.8547439,42.1146915 C39.1249199,40.9005881 40.9005881,39.1249199 42.1146915,36.8547439 C43.493946,34.2757623 44,31.7166993 44,26.1809713 L44,18.8190287 C44,13.2833007 43.493946,10.7242377 42.1146915,8.14525608 C40.9005881,5.87508011 39.1249199,4.09941187 36.8547439,2.88530848 C34.2757623,1.50605404 31.7166993,1 26.1809713,1 L18.8190287,1 Z" id="Rectangle" stroke="#8C9CAA" stroke-width="2"></path>
                        <path d="M17.819426,5.75 C13.8685664,5.75 12.197984,6.07260434 10.4694706,6.99702342 C8.97054235,7.79865903 7.79865903,8.97054235 6.99702342,10.4694706 C6.07260434,12.197984 5.75,13.8685664 5.75,17.819426 L5.75,27.180574 C5.75,31.1314336 6.07260434,32.802016 6.99702342,34.5305294 C7.79865903,36.0294576 8.97054235,37.201341 10.4694706,38.0029766 C12.197984,38.9273957 13.8685664,39.25 17.819426,39.25 L27.180574,39.25 C31.1314336,39.25 32.802016,38.9273957 34.5305294,38.0029766 C36.0294576,37.201341 37.201341,36.0294576 38.0029766,34.5305294 C38.9273957,32.802016 39.25,31.1314336 39.25,27.180574 L39.25,17.819426 C39.25,13.8685664 38.9273957,12.197984 38.0029766,10.4694706 C37.201341,8.97054235 36.0294576,7.79865903 34.5305294,6.99702342 C32.802016,6.07260434 31.1314336,5.75 27.180574,5.75 L17.819426,5.75 Z" id="Rectangle-Copy" stroke="#8C9CAA" stroke-width="1.5"></path>
                        <circle id="Oval" stroke="#8C9CAA" stroke-width="2" cx="31.5" cy="30.5" r="2.5"></circle>
                        <path d="M39.25,26.25 L39.25,18.75 L37,18.75 C36.3096441,18.75 35.75,19.3096441 35.75,20 L35.75,25 C35.75,25.6903559 36.3096441,26.25 37,26.25 L39.25,26.25 Z" id="Rectangle" stroke="#8C9CAA" stroke-width="1.5"></path>
                    </g>
                </g>
            </g>
        </g>
    </g>
</svg>