<?xml version="1.0" encoding="UTF-8"?>
<svg width="45px" height="45px" viewBox="0 0 45 45" version="1.1" xmlns="http://www.w3.org/2000/svg" xmlns:xlink="http://www.w3.org/1999/xlink">
    <!-- Generator: sketchtool 52.6 (67491) - http://www.bohemiancoding.com/sketch -->
    <title>81AED2E6-502F-4DC5-995F-76FDDD99B66B</title>
    <desc>Created with sketchtool.</desc>
    <g id="Desktop" stroke="none" stroke-width="1" fill="none" fill-rule="evenodd">
        <g id="Index" transform="translate(-895.000000, -601.000000)" fill="#8C9CAA">
            <g id="Statistics" transform="translate(619.000000, 550.000000)">
                <g id="6" transform="translate(276.000000, 48.000000)">
                    <g id="Client" transform="translate(0.000000, 3.000000)">
                        <g id="Group">
                            <path d="M5.341875,36.133125 L4.6725,34.381875 C4.6725,34.381875 7.86375,33.16125 8.1825,33.050625 L11.994375,31.725 C12.553125,31.53 13.063125,31.235625 13.51125,30.849375 L15.324375,29.289375 C15.718125,28.95 16.30875,28.996875 16.64625,29.38875 C16.98375,29.780625 16.93875,30.373125 16.546875,30.710625 L14.73375,32.26875 C14.1075,32.80875 13.393125,33.22125 12.609375,33.493125 L8.795625,34.81875 C8.4825,34.929375 5.341875,36.133125 5.341875,36.133125 Z" id="Path"></path>
                            <path d="M39.688125,36.005625 C39.688125,36.005625 36.5175,34.93125 36.19875,34.820625 L32.386875,33.495 C31.603125,33.22125 30.88875,32.810625 30.2625,32.270625 L28.45125,30.710625 C28.059375,30.373125 28.014375,29.780625 28.351875,29.38875 C28.689375,28.995 29.28375,28.951875 29.67375,29.289375 L31.485,30.849375 C31.933125,31.235625 32.443125,31.53 33.00375,31.725 L36.815625,33.050625 C37.134375,33.16125 40.291875,34.23 40.291875,34.23 L39.688125,36.005625 Z" id="Path"></path>
                            <path d="M22.5,45 C10.093125,45 0,34.906875 0,22.5 C0,10.093125 10.093125,0 22.5,0 C34.906875,0 45,10.093125 45,22.5 C45,34.906875 34.906875,45 22.5,45 Z M22.5,1.875 C11.128125,1.875 1.875,11.128125 1.875,22.5 C1.875,33.871875 11.128125,43.125 22.5,43.125 C33.871875,43.125 43.125,33.871875 43.125,22.5 C43.125,11.128125 33.871875,1.875 22.5,1.875 Z" id="Shape" fill-rule="nonzero"></path>
                            <path d="M27.1875,39.375 C26.975625,39.375 26.769375,39.30375 26.600625,39.170625 L22.5,35.8875 L18.3975,39.16875 C18.18375,39.339375 17.908125,39.40875 17.63625,39.358125 C17.36625,39.3075 17.13375,39.140625 16.99875,38.9025 L13.24875,32.34 C12.991875,31.89 13.1475,31.318125 13.5975,31.06125 C14.0475,30.800625 14.619375,30.96 14.87625,31.41 L18.0825,37.021875 L21.913125,33.95625 C22.25625,33.6825 22.741875,33.6825 23.085,33.95625 L26.915625,37.021875 L30.121875,31.41 C30.376875,30.96 30.950625,30.800625 31.400625,31.06125 C31.850625,31.318125 32.00625,31.89 31.749375,32.34 L27.999375,38.9025 C27.864375,39.140625 27.63,39.3075 27.361875,39.358125 C27.305625,39.369375 27.245625,39.375 27.1875,39.375 Z" id="Path"></path>
                            <path d="M25.254375,44.825625 C24.8625,44.825625 24.496875,44.578125 24.365625,44.184375 L23.038125,40.205625 C22.929375,39.883125 23.004375,39.52875 23.233125,39.2775 C23.638125,38.833125 24.31125,37.7475 24.37875,37.430625 C24.373125,37.359375 24.358125,37.220625 24.328125,37.081875 C24.215625,36.575625 24.53625,36.075 25.040625,35.964375 C25.54125,35.848125 26.045625,36.170625 26.158125,36.676875 C26.22,36.94875 26.25,37.22625 26.25,37.5 C26.25,38.259375 25.468125,39.4425 24.97875,40.095 L26.145,43.591875 C26.308125,44.083125 26.04375,44.61375 25.5525,44.776875 C25.453125,44.810625 25.351875,44.825625 25.254375,44.825625 Z" id="Path"></path>
                            <path d="M19.745625,44.825625 C19.648125,44.825625 19.54875,44.810625 19.449375,44.776875 C18.958125,44.61375 18.69375,44.083125 18.856875,43.591875 L20.025,40.09125 C19.5375,39.433125 18.75,38.236875 18.75,37.5 C18.75,37.22625 18.78,36.950625 18.84,36.680625 C18.9525,36.174375 19.449375,35.859375 19.9575,35.968125 C20.46375,36.080625 20.7825,36.58125 20.67,37.085625 C20.64,37.2225 20.625,37.36125 20.625,37.5 C20.683125,37.71 21.3375,38.799375 21.7725,39.28875 C21.995625,39.538125 22.066875,39.88875 21.961875,40.2075 L20.634375,44.18625 C20.503125,44.578125 20.1375,44.825625 19.745625,44.825625 Z" id="Path"></path>
                            <path d="M31.875,19.6875 C31.801875,19.6875 31.72875,19.68 31.655625,19.66125 C31.408125,19.60125 31.1925,19.441875 31.065,19.2225 C30.976875,19.070625 30.33,17.934375 30.09,16.65 C26.210625,16.426875 22.738125,14.709375 20.953125,12.96375 C19.61625,15.1275 16.423125,15.669375 15,15.669375 C14.75625,15.86625 14.244375,17.43375 14.055,18.871875 C14.01375,19.186875 13.813125,19.45875 13.52625,19.595625 C13.24125,19.7325 12.901875,19.711875 12.63,19.545 C12.271875,19.32375 11.16,18.75 10.3125,18.75 C9.795,18.75 9.375,18.33 9.375,17.8125 C9.375,17.295 9.795,16.875 10.3125,16.875 C11.056875,16.875 11.814375,17.101875 12.418125,17.349375 C12.766875,15.76875 13.50375,13.794375 15,13.794375 C15.046875,13.794375 19.6875,13.66125 19.6875,10.71375 C19.6875,10.19625 20.1075,9.77625 20.625,9.77625 C21.1425,9.77625 21.5625,10.19625 21.5625,10.71375 C21.705,11.540625 25.515,14.799375 30.9375,14.799375 C31.455,14.799375 31.875,15.219375 31.875,15.736875 C31.875,16.291875 32.079375,16.944375 32.295,17.465625 C32.926875,17.17875 33.8025,16.875 34.6875,16.875 C35.205,16.875 35.625,17.295 35.625,17.8125 C35.625,18.33 35.205,18.75 34.6875,18.75 C33.635625,18.75 32.394375,19.53 32.383125,19.5375 C32.229375,19.636875 32.053125,19.6875 31.875,19.6875 Z" id="Path"></path>
                            <path d="M22.5,33.75 C22.048125,33.75 21.579375,33.703125 21.024375,33.6 C20.80875,33.5625 20.589375,33.51 20.36625,33.45375 C20.19,33.406875 20.0325,33.354375 19.873125,33.3 C16.708125,32.29875 14.011875,29.488125 12.519375,25.681875 C12.399375,25.70625 12.286875,25.71375 12.1875,25.71375 C10.558125,25.71375 9.375,23.630625 9.375,20.758125 C9.375,20.349375 9.4875,19.336875 9.54375,18.855 C9.466875,18.6075 9.375,18.211875 9.375,17.745 C9.375,10.029375 15.2625,3.75 22.5,3.75 C23.0175,3.75 23.4375,4.17 23.4375,4.6875 C23.4375,5.205 23.0175,5.625 22.5,5.625 C16.295625,5.625 11.25,11.0625 11.25,17.745 C11.25,18.103125 11.3625,18.380625 11.364375,18.3825 C11.424375,18.530625 11.450625,18.703125 11.431875,18.860625 C11.43,18.868125 11.25,20.325 11.25,20.758125 C11.25,22.63875 11.911875,23.769375 12.195,23.840625 C12.18,23.836875 12.245625,23.7975 12.34125,23.694375 C12.56625,23.446875 12.905625,23.33625 13.235625,23.41125 C13.56375,23.4825 13.82625,23.724375 13.929375,24.043125 C15.125625,27.81 17.565,30.605625 20.45625,31.520625 C20.596875,31.5675 20.720625,31.60875 20.848125,31.6425 C21.005625,31.681875 21.178125,31.725 21.35625,31.756875 C21.736875,31.82625 22.11375,31.875 22.5,31.875 C23.0175,31.875 23.4375,32.295 23.4375,32.8125 C23.4375,33.33 23.0175,33.75 22.5,33.75 Z" id="Shape" fill-rule="nonzero"></path>
                            <path d="M22.5,33.75 C21.9825,33.75 21.5625,33.33 21.5625,32.8125 C21.5625,32.295 21.9825,31.875 22.5,31.875 C22.88625,31.875 23.263125,31.82625 23.63625,31.756875 C23.821875,31.725 23.994375,31.681875 24.16875,31.63875 C24.279375,31.606875 24.403125,31.565625 24.52875,31.524375 C27.436875,30.60375 29.87625,27.81 31.070625,24.043125 C31.171875,23.724375 31.434375,23.484375 31.7625,23.41125 C32.08875,23.33625 32.43,23.446875 32.656875,23.694375 C32.7525,23.799375 32.82,23.83875 32.836875,23.844375 C33.08625,23.77125 33.75,22.640625 33.75,20.758125 C33.75,20.325 33.57,18.868125 33.568125,18.8625 C33.5475,18.695625 33.57375,18.526875 33.64125,18.373125 C33.64125,18.373125 33.75,18.099375 33.75,17.745 C33.75,11.0625 28.704375,5.625 22.5,5.625 C21.9825,5.625 21.5625,5.205 21.5625,4.6875 C21.5625,4.17 21.9825,3.75 22.5,3.75 C29.7375,3.75 35.625,10.029375 35.625,17.745 C35.625,18.211875 35.533125,18.605625 35.45625,18.855 C35.5125,19.336875 35.625,20.349375 35.625,20.758125 C35.625,23.630625 34.441875,25.71375 32.8125,25.71375 C32.713125,25.71375 32.600625,25.70625 32.47875,25.681875 C30.99,29.488125 28.291875,32.29875 25.11,33.305625 C24.965625,33.354375 24.808125,33.406875 24.646875,33.45 C24.410625,33.51 24.189375,33.5625 23.964375,33.601875 C23.420625,33.703125 22.951875,33.75 22.5,33.75 Z" id="Path"></path>
                            <path d="M19.6875,20.625 L17.8125,20.625 C17.295,20.625 16.875,20.205 16.875,19.6875 C16.875,19.17 17.295,18.75 17.8125,18.75 L19.6875,18.75 C20.205,18.75 20.625,19.17 20.625,19.6875 C20.625,20.205 20.205,20.625 19.6875,20.625 Z" id="Path"></path>
                            <path d="M27.1875,20.625 L25.3125,20.625 C24.795,20.625 24.375,20.205 24.375,19.6875 C24.375,19.17 24.795,18.75 25.3125,18.75 L27.1875,18.75 C27.705,18.75 28.125,19.17 28.125,19.6875 C28.125,20.205 27.705,20.625 27.1875,20.625 Z" id="Path"></path>
                        </g>
                    </g>
                </g>
            </g>
        </g>
    </g>
</svg>