<?xml version="1.0" encoding="UTF-8"?>
<svg width="44px" height="48px" viewBox="0 0 44 48" version="1.1" xmlns="http://www.w3.org/2000/svg" xmlns:xlink="http://www.w3.org/1999/xlink">
    <!-- Generator: sketchtool 52.6 (67491) - http://www.bohemiancoding.com/sketch -->
    <title>B628633D-0B76-4CBF-B5CA-607054732F9B</title>
    <desc>Created with sketchtool.</desc>
    <g id="Desktop" stroke="none" stroke-width="1" fill="none" fill-rule="evenodd">
        <g id="Index" transform="translate(-621.000000, -762.000000)">
            <g id="Statistics" transform="translate(619.000000, 550.000000)">
                <g id="3" transform="translate(3.000000, 210.000000)">
                    <g id="PM-TS" transform="translate(0.000000, 3.000000)">
                        <g id="Group" stroke="#8C9CAA">
                            <g id="Group-3" transform="translate(9.000000, 33.000000)" stroke-linecap="round" stroke-linejoin="round" stroke-width="1.5">
                                <polyline id="Path" points="11.696 4 9.01879883 12.4008179 5.87594169 8.60771442 0.768798828 10.1249558 3.95751953 0.63671875"></polyline>
                                <polyline id="Path" points="19.0952148 0.625366211 23.8038853 8.56779506 19.0895996 8.18717223 16.3395996 12.3740234 11.696 4.66149902"></polyline>
                            </g>
                            <path d="M33.3102712,29.7954555 C33.3102712,27.8463825 34.451192,25.0891573 35.8298046,23.7105446 C37.2084172,22.331932 37.2084172,20.0500904 35.8298046,18.6714778 C34.451192,17.2928652 33.3102712,14.53564 33.3102712,12.586567 C33.3102712,10.6374939 31.6939667,9.0211895 29.7448937,9.0211895 C27.7958207,9.0211895 25.0385955,7.88026871 23.6599828,6.50165609 C22.2813702,5.12304347 19.9995287,5.12304347 18.620916,6.50165609 C17.2423034,7.88026871 14.4850782,9.0211895 12.5360052,9.0211895 C10.5869322,9.0211895 8.9706277,10.6374939 8.9706277,12.586567 C8.9706277,14.53564 7.82970691,17.2928652 6.4510943,18.6714778 C5.07248168,20.0500904 5.07248168,22.331932 6.4510943,23.7105446 C7.82970691,25.0891573 8.9706277,27.8463825 8.9706277,29.7954555 C8.9706277,31.7445285 10.5869322,33.360833 12.5360052,33.360833 C14.4850782,33.360833 17.2423034,34.5017538 18.620916,35.8803664 C19.9995287,37.258979 22.2813702,37.258979 23.6599828,35.8803664 C25.0385955,34.5017538 27.7958207,33.360833 29.7448937,33.360833 C31.7415051,33.3132946 33.3102712,31.7445285 33.3102712,29.7954555 Z" id="Path" stroke-width="1.5"></path>
                            <path d="M30.3590088,37.2636719 C30.8070722,37.1936062 32.074904,37.0106867 32.4810993,37.0106867 C35.1126313,36.9484064 37.1802636,34.8931551 37.1802636,32.3396612 C37.1802636,29.7861672 38.6839962,26.1739074 40.5010064,24.3677775 C42.3180166,22.5616476 42.3180166,19.5721912 40.5010064,17.7660614 C38.6839962,15.9599315 37.1802636,12.3476717 37.1802636,9.7941777 C37.1802636,7.24068372 35.0499758,5.12315212 32.4810993,5.12315212 C29.9122228,5.12315212 26.2782024,3.62842394 24.4611922,1.82229405 C22.644182,0.0161641567 19.6367169,0.0161641567 17.8197067,1.82229405 C16.0026965,3.62842394 12.3686761,5.12315212 9.79979957,5.12315212 C7.23092308,5.12315212 5.10063526,7.24068372 5.10063526,9.7941777 C5.10063526,12.3476717 3.59690268,15.9599315 1.77989248,17.7660614 C-0.0371177185,19.5721912 -0.0371177185,22.5616476 1.77989248,24.3677775 C3.59690268,26.1739074 5.10063526,29.7861672 5.10063526,32.3396612 C5.10063526,34.8931551 7.23092308,37.0106867 9.79979957,37.0106867 C10.0712046,37.0106867 11.3930447,36.9787133 11.6848295,37.0106867" id="Path" stroke-width="2"></path>
                        </g>
                        <path d="M17.4022631,19.4708487 C17.4022631,18.6383722 17.060271,18.0671602 16.3762764,17.7571956 C16.008946,17.588929 15.5445123,17.504797 14.9829612,17.504797 C14.7169633,17.504797 14.553356,17.532472 14.4921343,17.5878229 C14.4309125,17.6431737 14.4003021,17.7660507 14.4003021,17.9564576 L14.4003021,21.503321 C14.6325225,21.5254614 14.784519,21.5387454 14.8562962,21.5431734 C14.9280734,21.5476015 14.9977385,21.5498155 15.0652935,21.5498155 C15.660622,21.5498155 16.1292779,21.4612555 16.4712752,21.2841328 C17.0919369,20.960884 17.4022631,20.356462 17.4022631,19.4708487 Z M12,25.7542435 C12.493996,25.7055348 12.8022112,25.6025838 12.9246546,25.4453875 C13.0470981,25.2881911 13.1083189,24.9284161 13.1083189,24.3660517 L13.1083189,18.4745387 C13.1083189,18.0007356 13.0397094,17.6885616 12.9024883,17.5380074 C12.7652671,17.3874531 12.4644407,17.2922511 12,17.2523985 L12,17 L15.4199555,17 C16.5177245,17 17.3579274,17.223614 17.9405894,17.6708487 C18.5232514,18.1180834 18.8145781,18.7070074 18.8145781,19.4376384 C18.8145781,20.3631043 18.4915855,21.0339463 17.8455907,21.4501845 C17.1995958,21.8664227 16.3910589,22.0745387 15.4199555,22.0745387 C15.2806233,22.0745387 15.1022385,22.0712177 14.8847958,22.0645756 C14.6673531,22.0579335 14.5058568,22.0546125 14.4003021,22.0546125 L14.4003021,24.5254613 C14.4003021,25.039117 14.4752448,25.362361 14.6251325,25.495203 C14.7750202,25.6280449 15.1096236,25.7143909 15.6289528,25.7542435 L15.6289528,26 L12,26 L12,25.7542435 Z M18.948477,25.7542435 C19.484695,25.6966787 19.8287982,25.5693737 19.9807969,25.3723247 C20.1327957,25.1752758 20.208794,24.7180848 20.208794,24.000738 L20.208794,18.4745387 C20.208794,17.9830234 20.1349068,17.6631004 19.9871302,17.5147601 C19.8393536,17.3664199 19.5036947,17.2789669 18.9801433,17.2523985 L18.9801433,17 L21.5451099,17 L24.5470709,23.8612546 L27.4160336,17 L30,17 L30,17.2523985 C29.5186705,17.2878231 29.2083443,17.3797041 29.0690121,17.5280443 C28.9296799,17.6763845 28.8600148,17.9918795 28.8600148,18.4745387 L28.8600148,24.5254613 C28.8600148,25.0214047 28.9296799,25.3391137 29.0690121,25.4785978 C29.2083443,25.6180819 29.5186705,25.7099629 30,25.7542435 L30,26 L26.3647139,26 L26.3647139,25.7542435 C26.8882653,25.7099629 27.2144245,25.6114399 27.3432012,25.4586716 C27.471978,25.3059033 27.5363654,24.9417003 27.5363654,24.3660517 L27.5363654,18.2553506 L24.2177419,26 L24.0404108,26 L20.7787866,18.5741697 L20.7787866,24.000738 C20.7787866,24.7446532 20.8822286,25.2295192 21.0891159,25.4553506 C21.2242259,25.6014767 21.5261078,25.7011067 21.9947708,25.7542435 L21.9947708,26 L18.948477,26 L18.948477,25.7542435 Z" id="PM" fill="#8C9CAA"></path>
                    </g>
                </g>
            </g>
        </g>
    </g>
</svg>