<?xml version="1.0" encoding="UTF-8"?>
<svg width="45px" height="45px" viewBox="0 0 45 45" version="1.1" xmlns="http://www.w3.org/2000/svg" xmlns:xlink="http://www.w3.org/1999/xlink">
    <!-- Generator: sketchtool 52.6 (67491) - http://www.bohemiancoding.com/sketch -->
    <title>F2101F3B-17EE-4F42-827F-DA3C50FDF194</title>
    <desc>Created with sketchtool.</desc>
    <g id="Desktop" stroke="none" stroke-width="1" fill="none" fill-rule="evenodd">
        <g id="Index" transform="translate(-621.000000, -601.000000)" fill="#8C9CAA" fill-rule="nonzero">
            <g id="Statistics" transform="translate(619.000000, 550.000000)">
                <g id="5" transform="translate(2.000000, 48.000000)">
                    <g id="Thumb" transform="translate(22.500000, 25.500000) scale(-1, 1) translate(-22.500000, -25.500000) translate(0.000000, 3.000000)">
                        <path d="M8.5,42 C9.9,42 11,40.9 11,39.5 C11,38.1 9.9,37 8.5,37 C7.1,37 6,38.1 6,39.5 C6,40.9 7.1,42 8.5,42 Z M8.5,39 C8.8,39 9,39.2 9,39.5 C9,39.8 8.8,40 8.5,40 C8.2,40 8,39.8 8,39.5 C8,39.2 8.2,39 8.5,39 Z M44,27.75 C44,26.65 43.6,25.65 42.9,24.9 C44.15,24.15 45,22.8 45,21.25 C45,18.9 43.1,17 40.75,17 L32.5,17 L32.5,4.5 C32.5,2 30.5,0 28,0 L26,0 C24.9,0 24,0.9 24,2 L24,9 C24,14.75 19.6,19.45 14,19.95 L14,18 C14,17.45 13.55,17 13,17 L1,17 C0.45,17 0,17.45 0,18 L0,44 C0,44.55 0.45,45 1,45 L13,45 C13.55,45 14,44.55 14,44 L14,43 L14.65,43 C15.05,44.15 16.15,45 17.5,45 L37.75,45 C40.1,45 42,43.1 42,40.75 C42,39.65 41.6,38.65 40.9,37.9 C42.15,37.15 43,35.8 43,34.25 C43,33.15 42.6,32.15 41.9,31.4 C43.15,30.65 44,29.3 44,27.75 Z M12,43 L2,43 L2,19 L12,19 L12,43 Z M39.75,25.5 C41,25.5 42,26.5 42,27.75 C42,29 41,30 39.75,30 L38.75,30 C38.2,30 37.75,30.45 37.75,31 C37.75,31.55 38.2,32 38.75,32 C40,32 41,33 41,34.25 C41,35.5 40,36.5 38.75,36.5 L37.75,36.5 C37.2,36.5 36.75,36.95 36.75,37.5 C36.75,38.05 37.2,38.5 37.75,38.5 C39,38.5 40,39.5 40,40.75 C40,42 39,43 37.75,43 L17.5,43 C16.95,43 16.5,42.55 16.5,42 C16.5,41.45 16.05,41 15.5,41 L14,41 L14,21.95 C20.7,21.45 26,15.8 26,9 L26,2 L28,2 C29.4,2 30.5,3.1 30.5,4.5 L30.5,18 C30.5,18.55 30.95,19 31.5,19 L40.75,19 C42,19 43,20 43,21.25 C43,22.5 42,23.5 40.75,23.5 L39.75,23.5 C39.2,23.5 38.75,23.95 38.75,24.5 C38.75,25.05 39.2,25.5 39.75,25.5 Z" id="Shape"></path>
                    </g>
                </g>
            </g>
        </g>
    </g>
</svg>