<svg width="24" height="24" viewBox="0 0 24 24" fill="none" xmlns="http://www.w3.org/2000/svg">
<path d="M0 9.00098H2.26934C2.47564 9.00098 3.09456 8.93849 3.36963 9.81334C3.57593 10.3758 3.851 11.2506 4.26361 12.5629H4.40115C4.81375 11.1881 5.15759 10.2508 5.29513 9.81334C5.5702 8.93849 6.25788 9.00098 6.53295 9.00098H8.66476V15H6.46418V11.4381H6.32665L5.15759 15H3.50716L2.33811 11.4381H2.13181V15H0M9.55874 9.00098H11.7593V12.5629H11.9656L13.4097 9.62587C13.6848 9.06347 14.3037 9.00098 14.3037 9.00098H16.3668V15H14.1662V11.4381H14.0287L12.5845 14.3751C12.3095 14.9375 11.6218 15 11.6218 15H9.55874M19.3238 13.1878V15H17.2607V11.8755H24C23.7249 12.6254 22.7622 13.1878 21.6619 13.1878" fill="#0F754E"/>
<path d="M23.9486 11C24.2211 10.1 23.4036 9 21.6324 9H17C17.1362 10.05 18.3625 11 19.6568 11" fill="url(#paint0_linear_16994_134616)"/>
<defs>
<linearGradient id="paint0_linear_16994_134616" x1="23.1312" y1="8.35" x2="17.6812" y2="8.35" gradientUnits="userSpaceOnUse">
<stop stop-color="#1F5CD7"/>
<stop offset="1" stop-color="#02AEFF"/>
</linearGradient>
</defs>
</svg>