<svg width="24" height="24" viewBox="0 0 24 24" fill="none" xmlns="http://www.w3.org/2000/svg">
<g clip-path="url(#clip0_7108_21476)">
<path d="M24 19.464C24 22.38 22.38 24 19.464 24H4.536C1.62 24 0 22.38 0 19.464V4.536C0 1.62 1.62 0 4.536 0H19.47C22.38 0 24 1.62 24 4.536V19.464Z" fill="#FEE600"/>
<path d="M15.432 10.8299V8.53792L16.26 7.70992V9.69592L16.98 10.4159L19.878 7.51791L20.592 8.23192C20.586 7.69192 20.478 6.12592 19.152 4.82392C17.724 3.44393 16.176 4.06793 15.648 4.59592L12.756 7.48792L13.494 8.22591L12 9.73192L10.506 8.23792L11.244 7.49992L8.35196 4.60792C7.82396 4.07993 6.27596 3.45593 4.84796 4.83592C3.52196 6.13792 3.41396 7.70392 3.40796 8.24392L4.12196 7.52991L7.01996 10.4279L7.73996 9.70792V7.72192L8.56796 8.54992V10.8419L9.73196 11.9999L3.99596 17.7359L6.26396 19.9979L12 14.2679L17.736 20.0039L20.004 17.7419L14.268 11.9999L15.432 10.8299Z" fill="#2B2D33"/>
</g>
<defs>
<clipPath id="clip0_7108_21476">
<rect width="24" height="24" fill="white"/>
</clipPath>
</defs>
</svg>
