<svg width="30" height="31" viewBox="0 0 30 31" fill="none" xmlns="http://www.w3.org/2000/svg">
<path d="M14.9997 0.5C6.72662 0.5 0 7.22635 0 15.4997C0 23.7728 6.72635 30.5 14.9997 30.5C23.2728 30.5 30 23.7728 30 15.4997C30 7.22662 23.2726 0.5 14.9997 0.5ZM14.9997 2.36249C22.2447 2.36249 28.1375 8.25507 28.1375 15.4997C28.1375 22.7447 22.2447 28.6375 14.9997 28.6375C7.75534 28.6375 1.86249 22.7447 1.86249 15.4997C1.86249 8.25534 7.75507 2.36249 14.9997 2.36249ZM14.9997 4.19254C8.74398 4.19254 3.69254 9.24398 3.69254 15.4997C3.69254 21.7557 8.74398 26.8077 14.9997 26.8077C21.2557 26.8077 26.3077 21.7557 26.3077 15.4997C26.3077 9.24398 21.2557 4.19254 14.9997 4.19254ZM11.6262 7.57425H17.8672C17.9673 7.57425 18.0668 7.59088 18.1617 7.62333C19.2111 7.98138 20.1108 8.67969 20.7181 9.60742C21.3237 10.5363 21.6017 11.6408 21.508 12.7457C21.425 13.7059 21.0648 14.6214 20.4711 15.3806C19.8763 16.1391 19.074 16.7085 18.1617 17.0195C18.0668 17.0517 17.9674 17.0681 17.8672 17.068H12.5407V18.4831L17.8274 18.5166C18.07 18.5182 18.3021 18.6161 18.4725 18.7887C18.643 18.9613 18.7379 19.1946 18.7363 19.4372C18.7347 19.6799 18.6369 19.9119 18.4642 20.0824C18.2916 20.2528 18.0583 20.3477 17.8157 20.3461L12.5407 20.3126V22.511C12.5407 22.7536 12.4443 22.9863 12.2727 23.1578C12.1012 23.3294 11.8685 23.4257 11.6259 23.4257C11.3833 23.4257 11.1506 23.3294 10.9791 23.1578C10.8075 22.9863 10.7112 22.7536 10.7112 22.511V20.3014L9.55539 20.2941C9.31279 20.2925 9.08073 20.1946 8.91028 20.022C8.73983 19.8493 8.64495 19.6161 8.6465 19.3734C8.64806 19.1308 8.74592 18.8988 8.91857 18.7283C9.09122 18.5579 9.32451 18.463 9.56712 18.4646L10.7112 18.4719V17.0683H9.3888C9.14619 17.0683 8.91352 16.9719 8.74198 16.8004C8.57043 16.6288 8.47405 16.3962 8.47405 16.1535C8.47405 15.9109 8.57043 15.6783 8.74198 15.5067C8.91352 15.3352 9.14619 15.2388 9.3888 15.2388H10.7112V8.48955C10.7111 8.36938 10.7348 8.25039 10.7807 8.13936C10.8267 8.02833 10.894 7.92744 10.979 7.84245C11.0639 7.75746 11.1648 7.69003 11.2758 7.64401C11.3868 7.59799 11.506 7.57429 11.6262 7.57425ZM12.5409 9.4043V15.2383H17.6668C18.3086 15.1292 18.6822 14.6965 19.0301 14.2523C19.4031 13.772 19.6304 13.1948 19.685 12.5892C19.7402 11.8919 19.5649 11.1958 19.186 10.6078C18.8294 10.0614 18.274 9.63605 17.6625 9.40403L12.5409 9.4043Z" fill="#9F9F9F"/>
</svg>
