<svg width="24" height="24" viewBox="0 0 24 24" fill="none" xmlns="http://www.w3.org/2000/svg">
<path d="M2.25 5.25L5.25 10.4264V13.5838L2.25351 18.75L2.25 5.25Z" fill="#5B57A2"/>
<path d="M13.5 8.47948L16.208 6.75537L21.75 6.75L13.5 12V8.47948Z" fill="#D90751"/>
<path d="M13.4841 5.16268L13.5 12L10.5 10.2206V0L13.4841 5.16268Z" fill="#FAB718"/>
<path d="M21.75 6.74488L16.1564 6.75L13.4081 5.11057L10.5 0L21.75 6.74488Z" fill="#ED6F26"/>
<path d="M13.5 18.6961V15.2916L10.5 13.5L10.5016 24L13.5 18.6961Z" fill="#63B22F"/>
<path d="M16.1655 17.25L5.16448 10.4784L2.25 5.25L21.75 17.2432L16.1655 17.25Z" fill="#1487C9"/>
<path d="M10.5 24L13.4251 18.8843L16.1547 17.2567L21.75 17.25L10.5 24Z" fill="#017F36"/>
<path d="M2.25 18.75L10.5 13.7004L7.72638 12L5.14717 13.5799L2.25 18.75Z" fill="#984995"/>
</svg>
