<svg width="24" height="24" viewBox="0 0 24 24" fill="none" xmlns="http://www.w3.org/2000/svg">
<g clip-path="url(#clip0_52926_310685)">
<path d="M0 0H24V12.069C24 15.1639 22.3302 18.0172 19.6154 19.5705L12 24L4.39266 19.5705C1.67783 18.0288 0.0116514 15.1639 0.0116514 12.069V0H0Z" fill="#FFDD2D"/>
<path fill-rule="evenodd" clip-rule="evenodd" d="M6.46167 6.43262V10.231C6.986 9.64843 7.92977 9.25225 9.00172 9.25225H10.1785V13.6682C10.1785 14.845 9.86395 15.8703 9.38625 16.4413H14.6124C14.1347 15.8703 13.8463 14.845 13.8463 13.6682V9.25225H14.9909C16.0745 9.25225 17.0259 9.64843 17.5386 10.231V6.43262H6.46167Z" fill="#333333"/>
</g>
<defs>
<clipPath id="clip0_52926_310685">
<rect width="24" height="24" fill="white"/>
</clipPath>
</defs>
</svg>
