<svg width="24" height="24" viewBox="0 0 24 24" fill="none" xmlns="http://www.w3.org/2000/svg">
<g clip-path="url(#clip0_33791_61090)">
<path fill-rule="evenodd" clip-rule="evenodd" d="M24 12C24 18.6274 18.6274 24 12 24C5.37257 24 0 18.6274 0 12C0 5.37257 5.37257 0 12 0C18.6274 0 24 5.37257 24 12ZM7.9022 6.69759H16.0972H16.0982C17.604 6.69759 18.559 8.32504 17.802 9.6369L12.7433 18.4032C12.4133 18.9756 11.5862 18.9756 11.2561 18.4032L6.19846 9.6369C5.4404 8.32294 6.39543 6.69759 7.9022 6.69759ZM11.251 15.7724V8.19506H7.90117C7.53401 8.19506 7.31745 8.58493 7.49278 8.88917L10.1505 13.6426L11.251 15.7724ZM13.8479 13.6436L16.5046 8.88814C16.6799 8.5839 16.4633 8.19403 16.0962 8.19403H12.7464V15.7743L13.8479 13.6436Z" fill="#0098EA"/>
</g>
<defs>
<clipPath id="clip0_33791_61090">
<rect width="24" height="24" fill="white"/>
</clipPath>
</defs>
</svg>
